<?xml version="1.0" encoding="utf-8"?>
<!-- Designed by Vexels.com - 2020 All Rights Reserved - https://vexels.com/terms-and-conditions/  -->
<svg version="1.1" id="Layer_1" xmlns="http://www.w3.org/2000/svg" xmlns:xlink="http://www.w3.org/1999/xlink" x="0px" y="0px"
	 viewBox="0 0 1200 1200" enable-background="new 0 0 1200 1200" xml:space="preserve">
<g>
	<g>
		<path fill="#31353E" d="M1047.172,586.32c-0.561,0-1.122,0.009-1.679,0.022l-67.189,1.495c-0.003,0-0.006,0-0.009,0
			c-42.501,0-79.019,41.672-95,101.285l-0.745,0.092l-13.924-41.003c2.449-0.375,4.858-0.989,7.189-1.896
			c2.955-1.151,5.966-2.995,6.972-6.006c0.708-2.113,0.294-4.426-0.135-6.614c-5.223-26.996-10.478-54.093-17.431-80.677
			c5.531,2.02,11.106,3.875,16.747,5.484c8.333,2.38,17.085,4.229,25.479,2.133c2.583-0.643,5.049-1.638,7.406-2.906
			c7.538-4.025,13.989-10.795,19.872-17.62c6.777-7.858,13.233-16.056,19.348-24.575c1.992-2.776,4.023-5.781,4.387-9.323
			c0.243-2.405-0.314-4.829-1.059-7.104c-2.439-7.468-6.815-13.935-11.495-19.914c-12.361-15.809-27.134-28.983-41.819-42.066
			c-3.09-2.751-6.23-5.533-9.878-7.215c-5.59-2.578-11.853-2.337-17.896-2.053c-23.221,1.08-46.779,2.239-69.283,8.229
			c-5.984-5.983-12.224-11.736-18.442-17.457c-10.41-9.578-20.969-19.25-33.031-26.546c4.383-1.771,8.654-3.91,12.87-6.035
			c4.635-2.337,9.601-5.007,11.751-9.732c1.216-2.672,1.365-5.689,1.476-8.623c0.271-7.169,0.432-14.341,0.592-21.513l0.741-33.146
			c2.929-6.697,5.186-13.89,8.834-20.207c4.817-8.341,12.226-15.138,20.894-19.326c4.215,5.223,10.259,8.498,16.976,8.498
			c9.965,0,18.452-7.203,21.675-17.29l47.486-9.526c6.932-1.391,11.451-8.161,9.998-15.08c-0.386-1.836-1.008-3.421-1.765-4.785
			c-2.826-5.09-8.65-7.737-14.382-6.716c-10.326,1.84-33.359,5.939-46.903,8.308c-4.157-4.628-9.839-7.484-16.109-7.484
			c-11.086,0-20.342,8.917-22.556,20.801c-0.752,0.255-1.495,0.519-2.226,0.79c-6.683,2.471-13.388,5.384-18.585,10.257
			c-1.727,1.62-3.249,3.421-4.632,5.335c-0.883-1.094-1.972-2.044-3.055-2.953c-11.695-9.811-24.559-18.227-38.233-25.012
			c-2.296-1.139-4.648-2.244-7.17-2.703c-3.67-0.668-7.445,0.075-11.051,1.029c-18.748,4.962-35.437,15.841-48.043,30.504
			c-6.855,7.974-4.857,13.848-3.222,23.909c1.934,11.898,3.943,23.784,6.025,35.657c0.353,2.012,0.712,4.022,1.069,6.033
			c-3.268-0.155-6.592,0.009-9.849,0.171c-6.981,0.347-14.32,0.534-20.552-2.632c-6.612-3.359-10.861-9.903-15.527-15.667
			c-6.216-7.68-13.59-14.329-20.93-20.943c-11.447-10.314-23.284-20.859-37.246-27.09c2.593-16.148-2.777-30.415-12.808-32.769
			c-7.042-1.652-14.638,2.976-20.223,11.281l-82.526-25.226c-0.668-0.304-1.37-0.525-2.106-0.644
			c-6.566-1.059-13.171,6.033-14.754,15.842c-1.583,9.809,2.457,18.619,9.023,19.678c0.014,0.002,0.027,0.003,0.041,0.005
			l-0.003,0.018l82.103,18.876c0.198,12.311,5.277,22.141,13.451,24.06c6.762,1.587,14.037-2.615,19.549-10.305
			c15.77,7.82,29.943,18.845,41.387,32.22c3.478,4.065,6.706,8.341,10.254,12.345c5.325,6.01,11.336,11.369,17.33,16.712
			c2.451,2.184,4.93,4.389,7.821,5.945c3.79,2.04,7.997,2.828,12.317,3.029c0.822,2.134,1.712,4.142,2.089,5.364
			c1.025,3.323,1.978,6.667,2.875,10.027c-18.963,0.533-37.963,2.823-56.772,6.15c-10.053,1.779-20.051,3.853-29.959,6.11
			c-3.718,0.847-7.476,1.744-11.194,2.781c-3.373,0.94-6.711,1.996-9.958,3.224c-3.888-0.291-8.606-2.471-12.328-3.297
			c-4.429-0.983-8.885-1.839-13.358-2.592c-9.214-1.549-18.5-2.648-27.806-3.467c-9.382,0-18.987-1.257-28.378-1.72
			c-8.998-0.444-18.014-0.619-27.017-0.971c-23.7-0.927-47.386-2.232-71.045-3.913c-22.73-1.615-45.443-4.254-68.239-4.713
			c-3.219-0.065-6.529,0.07-9.744,0.573c-5.163,0.817-10.072,2.587-13.935,6.03c-8.583,7.645-12.794,28.334-13.88,39.363
			c-0.003,0.031,0.004,0.064,0.018,0.098c0.005,0.013,0.016,0.028,0.024,0.042c0.012,0.021,0.024,0.042,0.042,0.065
			c0.015,0.018,0.033,0.037,0.051,0.055c0.004,0.004,0.006,0.007,0.01,0.011c-33.711-9.794-67.423-19.593-101.139-29.387
			c-5.393-1.57-11.015-3.155-16.557-2.243c-5.208,0.857-9.804,3.833-14.09,6.908c-5.313,3.808-10.491,7.939-14.428,13.153
			c-1.69,2.238-3.125,4.68-4.187,7.277c-0.249,0.618-0.483,1.246-0.693,1.884c-0.722,2.178-2.542,7.725-0.907,9.788
			c0.299,0.379,0.728,0.618,1.146,0.852c7.267,4.057,14.508,8.154,21.75,12.261c10.74,6.095,21.481,12.191,32.221,18.286
			c10.556,5.986,20.977,12.804,31.897,18.097c5.208,2.955,9.509,7.286,12.41,12.525c15.226,27.491,30.258,55.312,45.488,82.798
			c2.652,4.775,7.316,8.109,12.694,9.056c2.447,0.429,4.895,0.827,7.341,1.201c13.726,2.113,27.501,3.459,41.432,4.725
			c1.978,0.179,3.964,0.356,5.952,0.494l5.765,15.005l-54.622,0.922c-17.166-35.744-42.46-58.342-70.669-58.342
			c-0.511,0-1.022,0.009-1.529,0.022l-61.18,1.514c-0.003,0-0.005,0-0.008,0C92.24,544.005,50,620.515,50,714.894
			s42.24,170.89,94.347,170.89c0.012,0,0.024-0.001,0.036-0.001l-0.037,0.002c0.743,0,1.483-0.021,2.221-0.053
			c0.179-0.008,0.358-0.018,0.538-0.027c0.573-0.03,1.145-0.069,1.716-0.118c0.189-0.016,0.379-0.03,0.568-0.048
			c0.666-0.064,1.33-0.137,1.992-0.225l-0.068,0.005c0.049-0.007,0.099-0.01,0.149-0.017c-0.027,0.004-0.054,0.009-0.081,0.013
			l54.952-3.664c0.243,0.004,0.487,0.009,0.731,0.009c37.379,0,69.639-39.681,84.651-97.052c3.281,10.696,6.159,19.126,7.02,18.909
			c2.325-0.585,73.646,14.496,73.646,14.496l11.236-10.393l30.952,2.472c6.514,95.875,56.429,170.449,117.049,170.449
			c0.015,0,0.03-0.001,0.045-0.001l-0.046,0.003c0.927,0,1.85-0.024,2.771-0.059c0.225-0.008,0.448-0.02,0.673-0.031
			c0.716-0.034,1.43-0.078,2.143-0.133c0.236-0.018,0.472-0.033,0.707-0.053c0.831-0.072,1.661-0.154,2.488-0.253l-0.086,0.005
			c0.062-0.007,0.125-0.012,0.187-0.019c-0.034,0.004-0.068,0.01-0.101,0.014l68.599-4.112c0.304,0.005,0.608,0.01,0.912,0.01
			c54.26,0,99.88-60.205,113.05-141.827c22.98-1.361,48.333-3.032,48.333-3.032s5.688-11.683,10.169-20.171l32.464-2.807
			l4.896,7.773l30.158-1.275l12.246-10.589l17.346-1.5c12.287,70.845,52.281,122.764,99.724,122.764c0.013,0,0.026-0.001,0.04-0.001
			l-0.04,0.003c0.816,0,1.628-0.021,2.439-0.052c0.197-0.007,0.393-0.018,0.589-0.027c0.63-0.03,1.258-0.069,1.885-0.117
			c0.208-0.016,0.416-0.029,0.623-0.047c0.731-0.063,1.461-0.135,2.188-0.223l-0.075,0.005c0.054-0.007,0.109-0.01,0.164-0.017
			c-0.03,0.004-0.059,0.009-0.089,0.012l60.35-3.617c0.267,0.004,0.535,0.009,0.802,0.009c56.79,0,102.828-74.959,102.828-167.43
			C1150,661.279,1103.962,586.32,1047.172,586.32z M648.819,807.802c0.014-0.225,0.024-0.451,0.037-0.676l0.003,0.001
			C648.846,807.352,648.833,807.577,648.819,807.802z M678.746,373.465c-1.058-5.534-2.131-11.065-3.226-16.591
			c2.238-0.174,4.477-0.348,6.715-0.521c0.704,3.785,1.413,7.569,2.132,11.351c0.389,2.048,0.792,4.117,1.359,6.124
			C683.402,373.675,681.075,373.554,678.746,373.465z"/>
	</g>
</g>
</svg>
